<svg xmlns="http://www.w3.org/2000/svg" viewBox="0 0 400 300" data-imageid="under-constructions-flatline-a4bbb" imageName="Under Constructions" class="illustrations_image" style="width: 188px;"><g id="_168_under_constructions_flatline" data-name="#168_under_constructions_flatline"><path d="M282.87,201.28H75.44a.5.5,0,0,1-.5-.5.5.5,0,0,1,.5-.5H282.87a.5.5,0,0,1,.5.5A.5.5,0,0,1,282.87,201.28Z" fill="#d1d3d4"/><polygon points="123.75 209.65 83.18 209.65 85.09 203.2 85.45 201.97 87.67 194.47 88.77 190.77 91.12 182.82 91.59 181.2 94.18 172.47 94.44 171.62 96.79 163.67 98.11 159.2 100.1 152.47 102.37 144.79 104.56 144.79 106.82 152.47 107.89 156.07 110.14 163.67 111.15 167.05 112.5 171.62 113.29 174.27 115.81 182.82 116.53 185.25 118.17 190.77 118.67 192.46 121.48 201.97 121.91 203.43 123.75 209.65" fill="#fff"/><path d="M104.55,144.79l2.27,7.68,1.07,3.6,2.25,7.6,1,3.38,1.35,4.57.79,2.65,2.52,8.55.72,2.43,1.64,5.52.5,1.69,2.81,9.51.43,1.46,1.85,6.22H83.18l1.91-6.45.36-1.23,2.22-7.51,1.1-3.69,2.35-8,.48-1.62,2.58-8.73.25-.85,2.36-8,1.32-4.47,2-6.73,2.27-7.68h2.18m0-1h-2.18a1,1,0,0,0-1,.72l-2.27,7.68-2,6.73-1.32,4.47-2.35,8-.26.84-2.58,8.73-.48,1.63-2.35,7.94-1.09,3.7-2.23,7.5-.36,1.24-1.91,6.45a1,1,0,0,0,.16.88,1,1,0,0,0,.8.4h40.58a1,1,0,0,0,.8-.4,1,1,0,0,0,.15-.88l-1.84-6.22-.43-1.47-2.81-9.5-.5-1.7L117.49,185l-.72-2.43L114.25,174l-.79-2.65-1.36-4.57-1-3.38-2.25-7.6-1.07-3.6-2.27-7.68a1,1,0,0,0-1-.72Z" fill="#231f20"/><rect x="77.51" y="209.65" width="51.91" height="5.75" rx="1.49" fill="#fff"/><path d="M127.93,215.9H79a2,2,0,0,1-2-2v-2.77a2,2,0,0,1,2-2h48.93a2,2,0,0,1,2,2v2.77A2,2,0,0,1,127.93,215.9ZM79,210.15a1,1,0,0,0-1,1v2.77a1,1,0,0,0,1,1h48.93a1,1,0,0,0,1-1v-2.77a1,1,0,0,0-1-1Z" fill="#231f20"/><polygon points="121.48 201.97 85.45 201.97 87.67 194.47 88.77 190.77 118.17 190.77 118.67 192.46 121.48 201.97" fill="#d1d3d4"/><polygon points="115.81 182.82 91.12 182.82 91.59 181.2 94.18 172.47 94.44 171.62 112.5 171.62 113.29 174.27 115.81 182.82" fill="#d1d3d4"/><polygon points="110.14 163.67 96.79 163.67 98.11 159.2 100.1 152.47 106.82 152.47 107.89 156.07 110.14 163.67" fill="#d1d3d4"/><path d="M180.8,233.73l55.14.31a.74.74,0,0,0,.35-1.4A52.85,52.85,0,0,0,226,228.55l-44.26.14-2,3.07A1.27,1.27,0,0,0,180.8,233.73Z" fill="#fff"/><path d="M235.94,234.54h0l-55.14-.31h0a1.77,1.77,0,0,1-1.48-2.75l2-3.06a.52.52,0,0,1,.42-.23l44.26-.14a.3.3,0,0,1,.13,0,53.19,53.19,0,0,1,10.39,4.13,1.25,1.25,0,0,1-.59,2.34Zm-55.13-1.31,55.13.31h0a.24.24,0,0,0,.24-.18.25.25,0,0,0-.12-.28,53,53,0,0,0-10.11-4l-43.93.14L180.16,232a.78.78,0,0,0,.65,1.2Z" fill="#231f20"/><path d="M181.75,228.69l44.26-.14s-3-16.82-12.59-22.05-21.26-2.43-26.95,6.8S181.75,228.69,181.75,228.69Z" fill="#fff"/><path d="M181.75,229.19a.5.5,0,0,1-.49-.42c0-.26-.93-6.46,4.79-15.74s17.66-12.38,27.61-7c9.72,5.28,12.72,21.71,12.85,22.4a.54.54,0,0,1-.11.41.53.53,0,0,1-.38.18l-44.27.14Zm21.56-24.81a19.14,19.14,0,0,0-16.41,9.18c-4.68,7.58-4.77,13.1-4.69,14.63l43.19-.14c-.63-3-3.92-16.6-12.22-21.11A20.61,20.61,0,0,0,203.31,204.38Z" fill="#231f20"/><path d="M219.87,222.24a.52.52,0,0,1-.46-.29,31.78,31.78,0,0,0-13.7-14.59.49.49,0,0,1-.24-.66.5.5,0,0,1,.66-.25,32.2,32.2,0,0,1,14.19,15.08.49.49,0,0,1-.24.66A.54.54,0,0,1,219.87,222.24Z" fill="#d1d3d4"/><polygon points="223.16 228.56 223.1 222.68 227.69 222.55 228.41 229.03 223.16 228.56" fill="#fff"/><path d="M228.41,229.53h0l-5.26-.47a.51.51,0,0,1-.45-.5l-.06-5.87a.51.51,0,0,1,.48-.51l4.59-.13a.51.51,0,0,1,.51.44l.73,6.48a.56.56,0,0,1-.14.41A.51.51,0,0,1,228.41,229.53Zm-4.76-1.43,4.19.38-.6-5.42-3.64.11Z" fill="#231f20"/><path d="M215.46,223.17a.51.51,0,0,1-.45-.29,25.87,25.87,0,0,0-15.4-13.81.5.5,0,0,1,.24-1,26.91,26.91,0,0,1,16.07,14.35.51.51,0,0,1-.24.67A.54.54,0,0,1,215.46,223.17Z" fill="#d1d3d4"/><path d="M321.39,111.21a5.82,5.82,0,0,1-1.09-.1c-4.23-.75-6.88-5.76-5.91-11.16a.52.52,0,0,1,.2-.33.56.56,0,0,1,.38-.08l14.36,2.58a.46.46,0,0,1,.32.2.47.47,0,0,1,.08.38C328.85,107.63,325.24,111.21,321.39,111.21Zm-6.1-10.59c-.63,4.66,1.63,8.87,5.19,9.51s7.14-2.53,8.17-7.12Z" fill="#231f20"/><rect x="315.04" y="98.26" width="14.59" height="3.08" transform="translate(22.68 -55.33) rotate(10.17)" fill="#231f20"/><path d="M329.24,103.11h-.09l-14.36-2.58a.48.48,0,0,1-.32-.2.54.54,0,0,1-.08-.37l.54-3a.5.5,0,0,1,.58-.4l14.36,2.57a.5.5,0,0,1,.4.58l-.54,3a.49.49,0,0,1-.21.32A.47.47,0,0,1,329.24,103.11Zm-13.78-3.48,13.38,2.4.37-2-13.38-2.4Z" fill="#231f20"/><rect x="311.58" y="109.21" width="4.65" height="75.19" transform="translate(30.85 -53.11) rotate(10.17)" fill="#fff"/><path d="M309.55,184.73h-.09l-4.57-.82a.51.51,0,0,1-.41-.58l13.28-74a.52.52,0,0,1,.2-.33.56.56,0,0,1,.38-.08l4.58.82a.5.5,0,0,1,.4.58l-13.28,74a.48.48,0,0,1-.2.32A.52.52,0,0,1,309.55,184.73Zm-4-1.73,3.59.65,13.1-73-3.6-.65Z" fill="#231f20"/><path d="M293.17,212.14h21.71a15.31,15.31,0,0,0,4.29-8.18l2.72-15.15-30.3-5.43-2.72,15.15A15.37,15.37,0,0,0,293.17,212.14Z" fill="#fff"/><path d="M314.88,212.64H293.17a.47.47,0,0,1-.35-.15,15.87,15.87,0,0,1-4.44-14.05l2.72-15.15a.5.5,0,0,1,.58-.4l30.3,5.43a.5.5,0,0,1,.4.58l-2.71,15.15a15.76,15.76,0,0,1-4.43,8.44A.51.51,0,0,1,314.88,212.64Zm-21.5-1h21.29a14.76,14.76,0,0,0,4-7.76l2.63-14.66L292,184l-2.63,14.66A14.89,14.89,0,0,0,293.38,211.64Z" fill="#231f20"/><path d="M299.93,183.72h12.67a0,0,0,0,1,0,0v4.94a5.07,5.07,0,0,1-5.07,5.07H305a5.07,5.07,0,0,1-5.07-5.07v-4.94A0,0,0,0,1,299.93,183.72Z" transform="translate(38.12 -51.1) rotate(10.17)" fill="#fff"/><path d="M307.53,194.45a5.5,5.5,0,0,1-1-.09l-2.5-.45a5.57,5.57,0,0,1-4.5-6.46l.87-4.86a.51.51,0,0,1,.21-.32.49.49,0,0,1,.37-.08l12.48,2.23a.5.5,0,0,1,.4.58l-.87,4.86A5.58,5.58,0,0,1,307.53,194.45Zm-6.21-11.19-.78,4.37a4.57,4.57,0,0,0,3.69,5.3l2.49.45h0a4.58,4.58,0,0,0,5.31-3.69l.78-4.37Z" fill="#231f20"/><rect x="304.07" y="180.34" width="7" height="3.5" transform="translate(36.98 -51.44) rotate(10.17)" fill="#fff"/><path d="M310.71,184.94h-.09l-6.89-1.24a.49.49,0,0,1-.32-.2.47.47,0,0,1-.08-.38l.61-3.44a.51.51,0,0,1,.58-.41l6.9,1.24a.48.48,0,0,1,.32.2.51.51,0,0,1,.08.38l-.62,3.44A.49.49,0,0,1,310.71,184.94Zm-6.31-2.14,5.91,1.06.44-2.47-5.91-1.06Z" fill="#231f20"/><path d="M303.09,206.94H303a.5.5,0,0,1-.4-.58l2-11.33a.5.5,0,1,1,1,.18l-2,11.32A.49.49,0,0,1,303.09,206.94Z" fill="#d1d3d4"/><path d="M331.25,212.64h-90.1a.5.5,0,1,1,0-1h90.1a.5.5,0,0,1,0,1Z" fill="#d1d3d4"/><path d="M247,235.54H171.52a.5.5,0,0,1-.5-.5.5.5,0,0,1,.5-.5H247a.5.5,0,0,1,.5.5A.51.51,0,0,1,247,235.54Z" fill="#d1d3d4"/><path d="M167.33,235.54h-5.1a.5.5,0,0,1-.5-.5.5.5,0,0,1,.5-.5h5.1a.5.5,0,0,1,.5.5A.5.5,0,0,1,167.33,235.54Z" fill="#d1d3d4"/><path d="M164.78,229h-41a.5.5,0,0,1-.5-.5.5.5,0,0,1,.5-.5h41a.5.5,0,0,1,.5.5A.5.5,0,0,1,164.78,229Z" fill="#d1d3d4"/><path d="M171.52,216.9H68.75a.5.5,0,1,1,0-1H171.52a.5.5,0,0,1,0,1Z" fill="#d1d3d4"/><path d="M286.2,229H250.08a.5.5,0,0,1-.5-.5.5.5,0,0,1,.5-.5H286.2a.5.5,0,0,1,.5.5A.5.5,0,0,1,286.2,229Z" fill="#d1d3d4"/><path d="M234.6,206.94h-8a.5.5,0,0,1-.5-.5.51.51,0,0,1,.5-.5h8a.51.51,0,0,1,.5.5A.5.5,0,0,1,234.6,206.94Z" fill="#d1d3d4"/><path d="M307.57,223.05h-7.38a.51.51,0,0,1-.5-.5.5.5,0,0,1,.5-.5h7.38a.5.5,0,0,1,.5.5A.5.5,0,0,1,307.57,223.05Z" fill="#d1d3d4"/><path d="M103,228H90.61a.51.51,0,0,1-.5-.5.5.5,0,0,1,.5-.5H103a.5.5,0,0,1,.5.5A.5.5,0,0,1,103,228Z" fill="#d1d3d4"/><path d="M237.21,192.46h-19.8a.5.5,0,0,1,0-1h19.8a.5.5,0,0,1,0,1Z" fill="#d1d3d4"/><path d="M288.63,239.67H268.14a.5.5,0,0,1,0-1h20.49a.5.5,0,0,1,0,1Z" fill="#d1d3d4"/><path d="M118,239.67H103.47a.5.5,0,0,1,0-1H118a.5.5,0,0,1,0,1Z" fill="#d1d3d4"/><path d="M139.24,73.74H154a1.81,1.81,0,0,1,1.8,1.61l1.51,14.3H135.93l1.52-14.3A1.8,1.8,0,0,1,139.24,73.74Z" fill="#68e1fd" class="target-color"/><rect x="138.27" y="94.9" width="16.69" height="129.75" fill="#fff"/><path d="M155,225.15H138.27a.51.51,0,0,1-.5-.5V94.9a.51.51,0,0,1,.5-.5H155a.5.5,0,0,1,.5.5V224.65A.5.5,0,0,1,155,225.15Zm-16.19-1h15.69V95.4H138.77Z" fill="#231f20"/><rect x="134.33" y="89.65" width="24.02" height="5.26" fill="#fff"/><path d="M158.35,95.4h-24a.5.5,0,0,1-.5-.5V89.65a.5.5,0,0,1,.5-.5h24a.5.5,0,0,1,.5.5V94.9A.5.5,0,0,1,158.35,95.4Zm-23.52-1h23V90.15h-23Z" fill="#231f20"/><path d="M155,77.25h-5.63a.51.51,0,0,1-.5-.5.5.5,0,0,1,.5-.5H155a.5.5,0,0,1,.5.5A.5.5,0,0,1,155,77.25Z" fill="#fff"/><rect x="133.37" y="219.22" width="25.94" height="8.26" fill="#fff"/><path d="M159.31,228H133.37a.51.51,0,0,1-.5-.5v-8.26a.5.5,0,0,1,.5-.5h25.94a.5.5,0,0,1,.5.5v8.26A.5.5,0,0,1,159.31,228Zm-25.44-1h24.94v-7.26H133.87Z" fill="#231f20"/><path d="M260.11,73.74h14.72a1.8,1.8,0,0,1,1.8,1.61l1.51,14.3H256.8l1.52-14.3A1.8,1.8,0,0,1,260.11,73.74Z" fill="#68e1fd" class="target-color"/><rect x="259.15" y="94.9" width="16.69" height="129.75" fill="#fff"/><path d="M275.83,225.15H259.15a.5.5,0,0,1-.5-.5V94.9a.5.5,0,0,1,.5-.5h16.68a.5.5,0,0,1,.5.5V224.65A.5.5,0,0,1,275.83,225.15Zm-16.18-1h15.68V95.4H259.65Z" fill="#231f20"/><rect x="255.2" y="89.65" width="24.02" height="5.26" fill="#fff"/><path d="M279.22,95.4h-24a.5.5,0,0,1-.5-.5V89.65a.5.5,0,0,1,.5-.5h24a.5.5,0,0,1,.5.5V94.9A.5.5,0,0,1,279.22,95.4Zm-23.52-1h23V90.15h-23Z" fill="#231f20"/><path d="M275.83,77.25H270.2a.51.51,0,0,1-.5-.5.5.5,0,0,1,.5-.5h5.63a.5.5,0,0,1,.5.5A.5.5,0,0,1,275.83,77.25Z" fill="#fff"/><rect x="254.24" y="219.22" width="25.94" height="8.26" fill="#fff"/><path d="M280.18,228H254.24a.51.51,0,0,1-.5-.5v-8.26a.5.5,0,0,1,.5-.5h25.94a.5.5,0,0,1,.5.5v8.26A.5.5,0,0,1,280.18,228Zm-25.44-1h24.94v-7.26H254.74Z" fill="#231f20"/><rect x="129.42" y="103.59" width="156.78" height="29.66" fill="#fff"/><path d="M286.2,103.59v29.66H129.42V103.59H286.2m0-1H129.42a1,1,0,0,0-1,1v29.66a1,1,0,0,0,1,1H286.2a1,1,0,0,0,1-1V103.59a1,1,0,0,0-1-1Z" fill="#231f20"/><polygon points="174.48 133.25 152.31 133.25 132.84 103.59 155.03 103.59 174.48 133.25" fill="#d1d3d4"/><polygon points="214.95 133.25 192.77 133.25 173.31 103.59 195.5 103.59 214.95 133.25" fill="#d1d3d4"/><polygon points="255.42 133.25 233.23 133.25 213.78 103.59 235.95 103.59 255.42 133.25" fill="#d1d3d4"/><polygon points="286.2 118.5 286.2 133.25 273.7 133.25 254.24 103.59 276.42 103.59 286.2 118.5" fill="#d1d3d4"/><rect x="129.42" y="155.92" width="156.78" height="29.66" fill="#fff"/><path d="M286.2,155.92v29.66H129.42V155.92H286.2m0-1H129.42a1,1,0,0,0-1,1v29.66a1,1,0,0,0,1,1H286.2a1,1,0,0,0,1-1V155.92a1,1,0,0,0-1-1Z" fill="#231f20"/><polygon points="174.48 185.58 152.31 185.58 132.84 155.92 155.03 155.92 174.48 185.58" fill="#d1d3d4"/><polygon points="214.95 185.58 192.77 185.58 173.31 155.92 195.5 155.92 214.95 185.58" fill="#d1d3d4"/><polygon points="255.42 185.58 233.23 185.58 213.78 155.92 235.95 155.92 255.42 185.58" fill="#d1d3d4"/><polygon points="286.2 170.83 286.2 185.58 273.7 185.58 254.24 155.92 276.42 155.92 286.2 170.83" fill="#d1d3d4"/><polygon points="138.27 147.38 154.96 144.13 154.96 133.96 138.27 133.96 138.27 147.38" fill="#231f20"/><path d="M138.27,147.88a.51.51,0,0,1-.49-.5V134a.49.49,0,0,1,.49-.5H155a.5.5,0,0,1,.5.5v10.17a.5.5,0,0,1-.4.49l-16.69,3.25Zm.5-13.42v12.32l15.7-3.06v-9.26Z" fill="#231f20"/><polygon points="259.14 139.7 275.83 136.3 275.83 133.96 259.14 133.96 259.14 139.7" fill="#231f20"/><path d="M259.15,140.19a.49.49,0,0,1-.5-.49V134a.5.5,0,0,1,.5-.5h16.68a.5.5,0,0,1,.5.5v2.34a.49.49,0,0,1-.4.49l-16.68,3.39Zm.49-5.73v4.63l15.7-3.2v-1.43Z" fill="#231f20"/><polygon points="138.27 195.78 154.96 193.08 154.96 186.52 138.27 186.52 138.27 195.78" fill="#231f20"/><path d="M138.27,196.28a.49.49,0,0,1-.49-.5v-9.26a.49.49,0,0,1,.49-.5H155a.5.5,0,0,1,.5.5v6.56a.5.5,0,0,1-.42.49l-16.69,2.7Zm.5-9.26v8.18l15.7-2.55V187Z" fill="#231f20"/><polygon points="259.14 191.96 275.83 188.72 275.83 186.14 259.14 186.14 259.14 191.96" fill="#231f20"/><path d="M259.15,192.46a.47.47,0,0,1-.32-.12.46.46,0,0,1-.18-.38v-5.82a.5.5,0,0,1,.5-.5h16.68a.5.5,0,0,1,.5.5v2.58a.5.5,0,0,1-.4.49l-16.69,3.24Zm.49-5.82v4.72l15.7-3.05v-1.67Z" fill="#231f20"/><rect x="167.33" y="120.2" width="79.62" height="52.08" fill="#68e1fd" class="target-color"/><path d="M247,120.2v52.08H167.33V120.2H247m0-1H167.33a1,1,0,0,0-1,1v52.08a1,1,0,0,0,1,1H247a1,1,0,0,0,1-1V120.2a1,1,0,0,0-1-1Z" fill="#231f20"/><path d="M188,144.94a5.43,5.43,0,0,1-1,1.85,4.41,4.41,0,0,1-1.6,1.2,5.14,5.14,0,0,1-4.16,0,4.34,4.34,0,0,1-1.58-1.2,5.37,5.37,0,0,1-1-1.85,7.86,7.86,0,0,1-.35-2.4v-9.08h2.82v8.79a5.09,5.09,0,0,0,.12,1.13,3.16,3.16,0,0,0,.38,1,2,2,0,0,0,.68.67,2.21,2.21,0,0,0,2,0,2.1,2.1,0,0,0,.69-.67,3.16,3.16,0,0,0,.38-1,5.1,5.1,0,0,0,.11-1.13v-8.79h2.84v9.08A7.56,7.56,0,0,1,188,144.94Z" fill="#fff"/><path d="M198.09,148l-4.72-9.54h-.05l.06,9.54h-2.75V133.46h3.23l4.71,9.51h.05l-.07-9.51h2.75V148Z" fill="#fff"/><path d="M214.67,140.71a8.66,8.66,0,0,1-.57,3.3,6.63,6.63,0,0,1-1.51,2.29,6.07,6.07,0,0,1-2.11,1.31,6.86,6.86,0,0,1-2.39.43h-4.37V133.46H208a8.55,8.55,0,0,1,2.45.36,5.68,5.68,0,0,1,2.15,1.19,6,6,0,0,1,1.53,2.24A9.16,9.16,0,0,1,214.67,140.71Zm-2.95,0a5.69,5.69,0,0,0-.32-2.05,3.38,3.38,0,0,0-.87-1.3,3.15,3.15,0,0,0-1.22-.69,4.83,4.83,0,0,0-1.42-.21h-1.41V145h1.35a4.78,4.78,0,0,0,1.46-.22,3.07,3.07,0,0,0,1.24-.71,3.54,3.54,0,0,0,.87-1.32A5.65,5.65,0,0,0,211.72,140.71Z" fill="#fff"/><path d="M216.54,148V133.46h7.88v3h-5.15v2.76h4.87V142h-4.87v3h5.45v3Z" fill="#fff"/><path d="M232.87,148l-2.54-5.79h-1V148h-2.77V133.46h4.48a6.41,6.41,0,0,1,1.64.21,4,4,0,0,1,1.45.73,3.7,3.7,0,0,1,1,1.36,5.06,5.06,0,0,1,.39,2.11,4.57,4.57,0,0,1-.65,2.49,3.59,3.59,0,0,1-1.79,1.44l3.06,6.24Zm-.11-10.11a1.72,1.72,0,0,0-.18-.84,1.42,1.42,0,0,0-.45-.49,1.62,1.62,0,0,0-.61-.24,3.85,3.85,0,0,0-.66-.06h-1.52v3.4h1.35a3.69,3.69,0,0,0,.72-.08,1.88,1.88,0,0,0,.66-.25,1.35,1.35,0,0,0,.49-.54A1.82,1.82,0,0,0,232.76,137.93Z" fill="#fff"/><path d="M182,158.75a2.39,2.39,0,0,1-1.15.28,2.5,2.5,0,0,1-1.1-.24,2.64,2.64,0,0,1-.88-.68,3.38,3.38,0,0,1-.58-1,4.15,4.15,0,0,1-.21-1.35,3.92,3.92,0,0,1,.22-1.36,3.05,3.05,0,0,1,.59-1,2.56,2.56,0,0,1,2-.89,2.71,2.71,0,0,1,1.07.23,2.07,2.07,0,0,1,.85.69l-.84,1a1.06,1.06,0,0,0-.46-.43,1.18,1.18,0,0,0-.58-.14,1.39,1.39,0,0,0-.6.14,1.46,1.46,0,0,0-.46.4,2.06,2.06,0,0,0-.31.61,2.63,2.63,0,0,0-.11.76,2.67,2.67,0,0,0,.11.78,1.83,1.83,0,0,0,.3.61,1.57,1.57,0,0,0,.46.39,1.31,1.31,0,0,0,.59.14,1.18,1.18,0,0,0,.65-.18A1.3,1.3,0,0,0,182,157l.86,1A2.45,2.45,0,0,1,182,158.75Z" fill="#fff"/><path d="M188.66,155.71a4.15,4.15,0,0,1-.21,1.35,3.13,3.13,0,0,1-.58,1.05,2.68,2.68,0,0,1-.89.68,2.62,2.62,0,0,1-1.12.24,2.57,2.57,0,0,1-1.11-.24,2.68,2.68,0,0,1-.89-.68,3.13,3.13,0,0,1-.58-1.05,4.48,4.48,0,0,1,0-2.71,3,3,0,0,1,.58-1,2.7,2.7,0,0,1,4,0,3,3,0,0,1,.58,1A4.13,4.13,0,0,1,188.66,155.71Zm-1.32,0a2.58,2.58,0,0,0-.11-.76,2.31,2.31,0,0,0-.3-.61,1.5,1.5,0,0,0-.47-.4,1.33,1.33,0,0,0-.6-.14,1.28,1.28,0,0,0-.59.14,1.5,1.5,0,0,0-.47.4,1.83,1.83,0,0,0-.3.61,2.59,2.59,0,0,0-.1.76,2.78,2.78,0,0,0,.1.78,2.06,2.06,0,0,0,.31.61,1.26,1.26,0,0,0,.46.4,1.18,1.18,0,0,0,.59.15,1.21,1.21,0,0,0,.6-.15,1.35,1.35,0,0,0,.46-.4,2.06,2.06,0,0,0,.31-.61A2.77,2.77,0,0,0,187.34,155.71Z" fill="#fff"/><path d="M192.75,158.86l-2.07-4.09h0l0,4.09h-1.21v-6.25h1.42l2.06,4.08h0l0-4.08h1.21v6.25Z" fill="#fff"/><path d="M197.93,154.23a1.1,1.1,0,0,0-.41-.39,1,1,0,0,0-.5-.15,1.07,1.07,0,0,0-.25,0,.6.6,0,0,0-.23.1.52.52,0,0,0-.17.19.59.59,0,0,0-.07.31.67.67,0,0,0,0,.26.58.58,0,0,0,.16.19,1.48,1.48,0,0,0,.25.14l.33.14.55.24a1.69,1.69,0,0,1,.51.34,1.73,1.73,0,0,1,.39.52,1.81,1.81,0,0,1,.15.78,2.46,2.46,0,0,1-.17.94,1.72,1.72,0,0,1-.43.64,1.81,1.81,0,0,1-.64.38,2,2,0,0,1-.73.13,2.53,2.53,0,0,1-1.07-.24,2.13,2.13,0,0,1-.85-.66l.81-1a1.5,1.5,0,0,0,.5.47,1.12,1.12,0,0,0,.61.19l.27,0a.84.84,0,0,0,.23-.12.47.47,0,0,0,.15-.21.76.76,0,0,0,.06-.32.56.56,0,0,0-.07-.3.73.73,0,0,0-.21-.22,1.69,1.69,0,0,0-.33-.19l-.45-.18a3.12,3.12,0,0,1-.49-.23,1.7,1.7,0,0,1-.42-.34,1.9,1.9,0,0,1-.3-.5,2.18,2.18,0,0,1-.11-.72,2,2,0,0,1,.18-.89,1.57,1.57,0,0,1,.45-.61,1.74,1.74,0,0,1,.64-.35,2.28,2.28,0,0,1,1.61.08,2.13,2.13,0,0,1,.79.58Z" fill="#fff"/><path d="M201.61,153.89v5h-1.24v-5h-1.45v-1.28h4.14v1.28Z" fill="#fff"/><path d="M206.38,158.86l-1.11-2.48h-.43v2.48h-1.21v-6.25h2a2.84,2.84,0,0,1,.72.09,1.6,1.6,0,0,1,1.08.89,2.24,2.24,0,0,1,.17.91,1.86,1.86,0,0,1-.29,1.06,1.5,1.5,0,0,1-.78.62l1.34,2.68Zm0-4.34a.68.68,0,0,0-.08-.36.55.55,0,0,0-.19-.21.79.79,0,0,0-.27-.1l-.29,0h-.66v1.46h.59l.31,0a.92.92,0,0,0,.29-.11.61.61,0,0,0,.22-.23A.87.87,0,0,0,206.33,154.52Z" fill="#fff"/><path d="M212.64,157.53a2.25,2.25,0,0,1-.44.79,2,2,0,0,1-.7.52,2.29,2.29,0,0,1-.92.19,2.24,2.24,0,0,1-.91-.19,1.86,1.86,0,0,1-.69-.52,2.42,2.42,0,0,1-.44-.79,3.33,3.33,0,0,1-.15-1v-3.89h1.24v3.77a1.86,1.86,0,0,0,.05.48,1.26,1.26,0,0,0,.17.41.76.76,0,0,0,.3.29.87.87,0,0,0,.44.11.91.91,0,0,0,.45-.11.92.92,0,0,0,.3-.29,1.26,1.26,0,0,0,.17-.41,2.44,2.44,0,0,0,.05-.48v-3.77h1.24v3.89A3.05,3.05,0,0,1,212.64,157.53Z" fill="#fff"/><path d="M217.48,158.75a2.39,2.39,0,0,1-1.15.28,2.5,2.5,0,0,1-1.1-.24,2.64,2.64,0,0,1-.88-.68,3.18,3.18,0,0,1-.58-1,4.48,4.48,0,0,1,0-2.71,3.07,3.07,0,0,1,.6-1,2.46,2.46,0,0,1,.88-.66,2.55,2.55,0,0,1,1.1-.23,2.71,2.71,0,0,1,1.07.23,2.13,2.13,0,0,1,.85.69l-.84,1A1.12,1.12,0,0,0,217,154a1.21,1.21,0,0,0-.58-.14,1.33,1.33,0,0,0-.6.14,1.5,1.5,0,0,0-.47.4,2,2,0,0,0-.3.61,2.63,2.63,0,0,0-.11.76,2.67,2.67,0,0,0,.11.78,1.83,1.83,0,0,0,.3.61,1.57,1.57,0,0,0,.46.39,1.31,1.31,0,0,0,.59.14,1.18,1.18,0,0,0,.65-.18,1.3,1.3,0,0,0,.44-.46l.86,1A2.65,2.65,0,0,1,217.48,158.75Z" fill="#fff"/><path d="M221,153.89v5h-1.24v-5h-1.46v-1.28h4.15v1.28Z" fill="#fff"/><path d="M223,158.86v-6.25h1.24v6.25Z" fill="#fff"/><path d="M230.69,155.71a4.15,4.15,0,0,1-.21,1.35,3.32,3.32,0,0,1-.58,1.05,2.68,2.68,0,0,1-3.13.68,2.64,2.64,0,0,1-.88-.68,3.15,3.15,0,0,1-.59-1.05,4.48,4.48,0,0,1,0-2.71,3.05,3.05,0,0,1,.59-1,2.55,2.55,0,0,1,.88-.65,2.84,2.84,0,0,1,2.24,0,2.59,2.59,0,0,1,.89.65,3.21,3.21,0,0,1,.58,1A4.13,4.13,0,0,1,230.69,155.71Zm-1.33,0a2.29,2.29,0,0,0-.11-.76,1.83,1.83,0,0,0-.3-.61,1.46,1.46,0,0,0-.46-.4,1.36,1.36,0,0,0-1.2,0,1.46,1.46,0,0,0-.46.4,1.83,1.83,0,0,0-.3.61,2.58,2.58,0,0,0-.11.76,2.77,2.77,0,0,0,.11.78,1.83,1.83,0,0,0,.3.61,1.35,1.35,0,0,0,.46.4,1.21,1.21,0,0,0,.6.15,1.18,1.18,0,0,0,.59-.15,1.38,1.38,0,0,0,.47-.4,1.83,1.83,0,0,0,.3-.61A2.45,2.45,0,0,0,229.36,155.71Z" fill="#fff"/><path d="M234.78,158.86l-2.07-4.09h0l0,4.09h-1.21v-6.25h1.42l2.06,4.08h0l0-4.08h1.2v6.25Z" fill="#fff"/><path d="M247,120.7a.42.42,0,0,1-.22,0l-39.6-18.89-39.59,18.89a.5.5,0,1,1-.43-.9l39.81-19a.54.54,0,0,1,.43,0l39.81,19a.5.5,0,0,1-.21,1Z" fill="#231f20"/><path d="M207.14,103.25a.5.5,0,0,1-.5-.5V97.9a.5.5,0,0,1,.5-.5.5.5,0,0,1,.5.5v4.85A.5.5,0,0,1,207.14,103.25Z" fill="#231f20"/><path d="M208.83,98h-3.17a.5.5,0,0,1-.5-.5.5.5,0,0,1,.5-.5h3.17a.51.51,0,0,1,.5.5A.5.5,0,0,1,208.83,98Z" fill="#231f20"/></g></svg>